<mxfile host="app.diagrams.net" modified="2021-12-09T10:39:34.081Z" agent="5.0 (Macintosh; Intel Mac OS X 10_15_2) AppleWebKit/537.36 (KHTML, like Gecko) Chrome/94.0.4606.81 Safari/537.36" etag="m-EP50ub0gE11qDL8Bzg" version="15.9.4" type="github">
  <diagram id="9yYx3cWBsJKRU6WUZeX_" name="Page-1">
    <mxGraphModel dx="1208" dy="688" grid="1" gridSize="10" guides="1" tooltips="1" connect="1" arrows="1" fold="1" page="1" pageScale="1" pageWidth="1169" pageHeight="827" math="0" shadow="0">
      <root>
        <mxCell id="0" />
        <mxCell id="1" parent="0" />
        <mxCell id="gR8wkc3PYmkCXsu1GuSv-1" value="&lt;meta charset=&quot;utf-8&quot;&gt;&lt;h1 style=&quot;box-sizing: border-box; font-size: 38.5px; margin: 0px; font-weight: 800; line-height: 1.25; background-color: transparent; padding: 2px 10px 8px 12px; font-style: normal; font-stretch: normal; letter-spacing: normal; text-align: left; max-width: 1296px; text-indent: 0px; text-transform: none; word-spacing: 0px;&quot;&gt;SQL Tuning Guide&lt;/h1&gt;" style="text;whiteSpace=wrap;html=1;fontColor=#000000;" vertex="1" parent="1">
          <mxGeometry x="350" y="40" width="380" height="70" as="geometry" />
        </mxCell>
        <mxCell id="gR8wkc3PYmkCXsu1GuSv-2" value="&lt;meta charset=&quot;utf-8&quot; style=&quot;font-size: 20px;&quot;&gt;&lt;h2 id=&quot;TGSQL-GUID-EF45F82A-F17D-4C79-9B6A-8CBBB95F0684&quot; class=&quot;sect2&quot; style=&quot;box-sizing: border-box; font-weight: normal; line-height: 1.21; color: rgb(26, 24, 22); margin-top: 10px; margin-bottom: 10px; font-size: 20px; font-style: normal; font-stretch: normal; letter-spacing: normal; text-align: left; text-indent: 0px; text-transform: none; word-spacing: 0px; background-color: rgb(252, 251, 250);&quot;&gt;Query Optimizer Fundamentals&lt;/h2&gt;" style="text;whiteSpace=wrap;html=1;fontColor=#000000;fontSize=20;" vertex="1" parent="1">
          <mxGeometry x="105" y="140" width="480" height="50" as="geometry" />
        </mxCell>
        <mxCell id="gR8wkc3PYmkCXsu1GuSv-3" value="&lt;meta charset=&quot;utf-8&quot; style=&quot;font-size: 21px;&quot;&gt;&lt;h2 id=&quot;TGSQL-GUID-BE44BB45-C061-4F3A-8F18-4AAC5F74C68A&quot; class=&quot;sect2&quot; style=&quot;box-sizing: border-box; font-weight: normal; line-height: 1.21; color: rgb(26, 24, 22); margin-top: 10px; margin-bottom: 10px; font-size: 21px; font-style: normal; font-stretch: normal; letter-spacing: normal; text-align: left; text-indent: 0px; text-transform: none; word-spacing: 0px; background-color: rgb(252, 251, 250);&quot;&gt;Query Execution Plans&lt;/h2&gt;" style="text;whiteSpace=wrap;html=1;fontSize=21;fontColor=#000000;" vertex="1" parent="1">
          <mxGeometry x="105" y="200" width="360" height="70" as="geometry" />
        </mxCell>
      </root>
    </mxGraphModel>
  </diagram>
</mxfile>
